<?xml version="1.0" encoding="UTF-8" standalone="no"?>
<!DOCTYPE svg PUBLIC "-//W3C//DTD SVG 1.1//EN"
 "http://www.w3.org/Graphics/SVG/1.1/DTD/svg11.dtd">
<!-- Generated by graphviz version 10.0.1 (20240210.2158)
 -->
<!-- Title: G Pages: 1 -->
<svg width="686pt" height="44pt"
 viewBox="0.00 0.00 685.50 44.00" xmlns="http://www.w3.org/2000/svg" xmlns:xlink="http://www.w3.org/1999/xlink">
<g id="graph0" class="graph" transform="scale(1 1) rotate(0) translate(4 40)">
<title>G</title>
<polygon fill="white" stroke="none" points="-4,4 -4,-40 681.5,-40 681.5,4 -4,4"/>
<!-- data.aws_ami.app_ami -->
<g id="node1" class="node">
<title>data.aws_ami.app_ami</title>
<polygon fill="none" stroke="black" points="156.25,-36 0,-36 0,0 156.25,0 156.25,-36"/>
<text text-anchor="middle" x="78.12" y="-12.2" font-family="sans-serif" font-size="14.00">data.aws_ami.app_ami</text>
</g>
<!-- aws_eip.lb -->
<g id="node2" class="node">
<title>aws_eip.lb</title>
<polygon fill="none" stroke="black" points="450,-36 370.25,-36 370.25,0 450,0 450,-36"/>
<text text-anchor="middle" x="410.12" y="-12.2" font-family="sans-serif" font-size="14.00">aws_eip.lb</text>
</g>
<!-- aws_instance.myec2 -->
<g id="node3" class="node">
<title>aws_instance.myec2</title>
<polygon fill="none" stroke="black" points="334.25,-36 192.25,-36 192.25,0 334.25,0 334.25,-36"/>
<text text-anchor="middle" x="263.25" y="-12.2" font-family="sans-serif" font-size="14.00">aws_instance.myec2</text>
</g>
<!-- aws_eip.lb&#45;&gt;aws_instance.myec2 -->
<g id="edge1" class="edge">
<title>aws_eip.lb&#45;&gt;aws_instance.myec2</title>
<path fill="none" stroke="black" d="M369.92,-18C362.43,-18 354.34,-18 346.08,-18"/>
<polygon fill="black" stroke="black" points="346.26,-14.5 336.26,-18 346.26,-21.5 346.26,-14.5"/>
</g>
<!-- aws_instance.myec2&#45;&gt;data.aws_ami.app_ami -->
<g id="edge2" class="edge">
<title>aws_instance.myec2&#45;&gt;data.aws_ami.app_ami</title>
<path fill="none" stroke="black" d="M191.97,-18C184.09,-18 175.98,-18 167.9,-18"/>
<polygon fill="black" stroke="black" points="168.04,-14.5 158.04,-18 168.04,-21.5 168.04,-14.5"/>
</g>
<!-- aws_security_group.allow_tls -->
<g id="node4" class="node">
<title>aws_security_group.allow_tls</title>
<polygon fill="none" stroke="black" points="677.5,-36 486,-36 486,0 677.5,0 677.5,-36"/>
<text text-anchor="middle" x="581.75" y="-12.2" font-family="sans-serif" font-size="14.00">aws_security_group.allow_tls</text>
</g>
<!-- aws_security_group.allow_tls&#45;&gt;aws_eip.lb -->
<g id="edge3" class="edge">
<title>aws_security_group.allow_tls&#45;&gt;aws_eip.lb</title>
<path fill="none" stroke="black" d="M485.52,-18C477.4,-18 469.4,-18 461.84,-18"/>
<polygon fill="black" stroke="black" points="461.86,-14.5 451.86,-18 461.86,-21.5 461.86,-14.5"/>
</g>
</g>
</svg>
